<svg xmlns="http://www.w3.org/2000/svg" viewBox="0 0 480 480"><title>How to measure a kameez laid flat</title><defs><marker id="arrow" viewBox="0 0 10 10" refX="5" refY="5" markerWidth="5" markerHeight="5" orient="auto-start-reverse"><path d="m0 0 10 5L0 10" fill="#78374a"/></marker></defs><path fill="#f2e7d2" d="M0 0h480v480H0z"/><path d="m174 66-50 18-81 160 54 23 55-92-23 242h222l-23-242 55 92 54-23-81-160-50-18q-18 52-66 0Z" fill="#d2d7bf" stroke="#354739" stroke-width="3"/><path d="M218 73q22 63 44 0M140 392h200" fill="none" stroke="#a7823e" stroke-width="5"/><g stroke="#78374a" stroke-width="2" marker-start="url(#arrow)" marker-end="url(#arrow)"><path d="M156 184h168M147 288h185M283 82v326M361 101l60 125"/></g><g fill="#78374a" font-family="Georgia,serif" font-weight="bold" font-size="22"><text x="216" y="172">A</text><text x="218" y="276">B</text><text x="292" y="252">C</text><text x="405" y="154">D</text></g><text x="240" y="452" text-anchor="middle" fill="#352b20" font-family="sans-serif" font-size="13">Measure a similar garment without stretching.</text></svg>
