<svg xmlns="http://www.w3.org/2000/svg" viewBox="0 0 640 300"><title>Original decorative indigo study</title><defs><pattern id="motif" width="80" height="100" patternUnits="userSpaceOnUse"><path d="M40 5 48 27 70 20 63 42 85 50 63 58 70 80 48 73 40 95 32 73 10 80 17 58 -5 50 17 42 10 20 32 27Z" fill="none" stroke="#f2e7d2" stroke-width="2"/><circle cx="40" cy="50" r="12" fill="#974331" stroke="#f2e7d2"/><path d="m40 42 8 8-8 8-8-8Z" fill="#f2e7d2"/></pattern><pattern id="weave" width="4" height="4" patternUnits="userSpaceOnUse"><path d="M0 1h4M1 0v4" stroke="#f2e7d2" stroke-opacity=".09"/></pattern></defs><path fill="#233648" d="M0 0h640v300H0z"/><path fill="url(#motif)" d="M0 0h640v300H0z"/><path fill="url(#weave)" d="M0 0h640v300H0z"/><path d="M0 9h640M0 291h640" stroke="#f2e7d2" stroke-width="3"/></svg>